# xmcd
#
# Track frame offsets:
#	150
#	11955
#	21275
#	32130
#	41037
#	51217
#	61457
#	71275
#	82540
#	92340
#	100597
#	110500
#	122000
#	131610
#	142400
#	151427
#	161192
#	171090
#
# Disc length: 2427 seconds
#
# Revision: 0
# Processed by: cddbd v1.5PL3 Copyright (c) Steve Scherf et al.
# Submitted via: dBpowerAMP V4.0
#
DISCID=f0097912
DTITLE=Gene Vincent - Rockin´ and Boppin´
DYEAR=1900
DGENRE=Rock´n-Roll
TTITLE0=Be-Bop-A-Lula
TTITLE1=Race With The Devil
TTITLE2=Blue Jean Bop
TTITLE3=Who Slapped John
TTITLE4=Dance To The Bop
TTITLE5=B-I-Bickey-Bi, Bo-Bo-Go
TTITLE6=Lotta Lovin´
TTITLE7=Baby Blue
TTITLE8=Rocky Road Blues
TTITLE9=Be Bop Boogie Boy
TTITLE10=Say Mama
TTITLE11=Woman Love
TTITLE12=I Got It
TTITLE13=Wild Cat
TTITLE14=Little Lover
TTITLE15=Pistol Packing Mama
TTITLE16=Red Blue Jeans
TTITLE17=She She Little Sheila
EXTD=
EXTT0=
EXTT1=
EXTT2=
EXTT3=
EXTT4=
EXTT5=
EXTT6=
EXTT7=
EXTT8=
EXTT9=
EXTT10=
EXTT11=
EXTT12=
EXTT13=
EXTT14=
EXTT15=
EXTT16=
EXTT17=
PLAYORDER=
